<?xml version="1.0" encoding="UTF-8"?>
<svg id="Layer_1" data-name="Layer 1" xmlns="http://www.w3.org/2000/svg" xmlns:xlink="http://www.w3.org/1999/xlink" viewBox="0 0 399.737 125.073">
  <defs>
    <style>
      .cls-1 {
        fill: #058d96;
      }

      .cls-2 {
        fill: #231f20;
      }

      .cls-3 {
        fill: url(#linear-gradient);
      }

      .cls-4 {
        fill: #8ac341;
      }

      .cls-5 {
        fill: #52b448;
      }

      .cls-6 {
        fill: #00a450;
      }
    </style>
    <linearGradient id="linear-gradient" x1="308.308" y1="17.817" x2="190.972" y2="17.817" gradientUnits="userSpaceOnUse">
      <stop offset="0" stop-color="#8ac341"/>
      <stop offset="1" stop-color="#058d96"/>
    </linearGradient>
  </defs>
  <g>
    <path class="cls-3" d="M307.698,34.371l-.711-.024c-.022-.002-.04-.013-.061-.013l-2.62-.084c-3.57-.273-7.01-.601-10.341-.977v-9.28h-3.571s-.006-.011-.014-.015c-.262-.174-21.057-13.803-48.749-20.491-3.544-.885-7.175-1.645-10.854-2.228-.075-.013-.147,0-.216.022C226.551.657,222.447.212,218.281,0c-.256-.013-.473.185-.487.441-.013.255.183.473.439.486,7.982.405,15.737,1.671,23.017,3.419,22.798,5.658,42.054,16.587,47.169,19.646h-23.296v-9.417h-28.95V5.357h-44.378c-.482,0-.823.227-.823.641,0,.625.654.726.843.746.125.013,12.653,1.368,29.349,8.285,21.222,8.792,45.078,17.612,82.573,20.454.006.002.112.005.279.011.156.011.311.024.466.037.027,0,3.173.102,3.173.102.351.011.641-.262.653-.61.011-.35-.262-.641-.61-.652ZM292.812,33.136c-15.324-1.799-28.233-4.635-39.661-7.994h39.661v7.994ZM263.972,23.993h-14.619c-8.228-2.572-15.7-5.397-22.806-8.265h37.425v8.265ZM235.023,6.509v8.067h-11.299c-.686-.282-1.369-.564-2.05-.846-9.416-3.902-17.533-6.064-22.939-7.222h36.288Z"/>
    <g>
      <path class="cls-2" d="M185.7,101.207h8.794c3.506,0,5.679,1.91,5.679,4.892,0,2.253-.995,4.109-3.245,4.738v.051c2.171.419,2.616,2.015,2.8,3.848.156,1.831.051,3.874,1.1,5.155h-2.774c-.706-.759-.314-2.774-.68-4.605-.263-1.833-.708-3.375-3.115-3.375h-6.071v7.981h-2.488v-18.685ZM193.369,109.817c2.33,0,4.319-.603,4.319-3.324,0-1.831-.995-3.194-3.324-3.194h-6.176v6.518h5.181Z"/>
      <path class="cls-2" d="M214.791,115.601c-.601,2.982-2.747,4.605-5.782,4.605-4.319,0-6.36-2.984-6.492-7.119,0-4.056,2.67-7.04,6.36-7.04,4.79,0,6.255,4.475,6.124,7.746h-10.126c-.079,2.355,1.256,4.449,4.212,4.449,1.833,0,3.115-.89,3.508-2.642h2.197ZM212.645,111.832c-.105-2.12-1.701-3.82-3.9-3.82-2.33,0-3.716,1.752-3.872,3.82h7.771Z"/>
      <path class="cls-2" d="M218.879,115.627c.079,1.989,1.805,2.616,3.639,2.616,1.386,0,3.271-.314,3.271-2.015,0-1.726-2.199-2.015-4.424-2.511-2.197-.499-4.421-1.23-4.421-3.823,0-2.721,2.695-3.846,5.05-3.846,2.984,0,5.365.941,5.549,4.24h-2.225c-.158-1.726-1.675-2.276-3.14-2.276-1.335,0-2.879.366-2.879,1.726,0,1.596,2.355,1.859,4.424,2.355,2.222.499,4.421,1.23,4.421,3.848,0,3.217-3.01,4.265-5.756,4.265-3.038,0-5.603-1.23-5.733-4.58h2.225Z"/>
      <path class="cls-2" d="M242.207,115.601c-.601,2.982-2.747,4.605-5.782,4.605-4.319,0-6.36-2.984-6.492-7.119,0-4.056,2.67-7.04,6.36-7.04,4.79,0,6.255,4.475,6.124,7.746h-10.126c-.079,2.355,1.256,4.449,4.212,4.449,1.833,0,3.115-.89,3.508-2.642h2.197ZM240.062,111.832c-.105-2.12-1.701-3.82-3.9-3.82-2.33,0-3.716,1.752-3.872,3.82h7.771Z"/>
      <path class="cls-2" d="M256.858,119.841c-.391.235-.89.366-1.596.366-1.151,0-1.885-.629-1.885-2.094-1.23,1.44-2.879,2.094-4.762,2.094-2.462,0-4.477-1.1-4.477-3.795,0-3.063,2.278-3.716,4.58-4.161,2.46-.473,4.554-.314,4.554-1.989,0-1.938-1.596-2.25-3.01-2.25-1.885,0-3.271.575-3.375,2.565h-2.225c.13-3.35,2.721-4.529,5.731-4.529,2.434,0,5.078.55,5.078,3.716v6.963c0,1.046,0,1.517.706,1.517.184,0,.394-.026.68-.13v1.729ZM253.247,112.904c-.864.629-2.539.655-4.03.918-1.465.261-2.721.785-2.721,2.432,0,1.468,1.256,1.989,2.616,1.989,2.931,0,4.135-1.831,4.135-3.061v-2.278Z"/>
      <path class="cls-2" d="M258.999,106.362h2.094v2.851h.054c1.072-2.171,2.562-3.245,4.971-3.166v2.355c-3.585,0-4.894,2.041-4.894,5.47v6.02h-2.225v-13.53Z"/>
      <path class="cls-2" d="M276.952,110.707c-.34-1.701-1.517-2.695-3.35-2.695-3.219,0-4.212,2.537-4.212,5.286,0,2.486,1.125,4.946,3.951,4.946,2.146,0,3.429-1.256,3.716-3.296h2.278c-.499,3.296-2.565,5.26-5.968,5.26-4.135,0-6.334-2.879-6.334-6.909,0-4.056,2.094-7.25,6.388-7.25,3.061,0,5.521,1.44,5.835,4.659h-2.304Z"/>
      <path class="cls-2" d="M281.875,101.207h2.225v7.145h.051c.734-1.624,2.644-2.304,4.268-2.304,3.557,0,4.657,2.041,4.657,4.946v8.899h-2.225v-9.16c0-1.649-1.046-2.721-2.747-2.721-2.695,0-4.004,1.805-4.004,4.24v7.641h-2.225v-18.685Z"/>
      <path class="cls-2" d="M317.195,106.833c-.524-2.644-2.644-3.979-5.234-3.979-4.449,0-6.334,3.664-6.334,7.564,0,4.265,1.885,7.825,6.36,7.825,3.273,0,5.155-2.302,5.393-5.391h2.486c-.471,4.659-3.375,7.485-8.088,7.485-5.81,0-8.636-4.291-8.636-9.735s3.089-9.84,8.845-9.84c3.9,0,7.119,2.092,7.694,6.071h-2.486Z"/>
      <path class="cls-2" d="M334.415,119.841c-.391.235-.89.366-1.596.366-1.151,0-1.885-.629-1.885-2.094-1.23,1.44-2.879,2.094-4.762,2.094-2.462,0-4.477-1.1-4.477-3.795,0-3.063,2.278-3.716,4.58-4.161,2.46-.473,4.554-.314,4.554-1.989,0-1.938-1.596-2.25-3.01-2.25-1.885,0-3.271.575-3.375,2.565h-2.225c.13-3.35,2.723-4.529,5.731-4.529,2.434,0,5.078.55,5.078,3.716v6.963c0,1.046,0,1.517.706,1.517.184,0,.394-.026.68-.13v1.729ZM330.804,112.904c-.864.629-2.539.655-4.03.918-1.465.261-2.721.785-2.721,2.432,0,1.468,1.256,1.989,2.616,1.989,2.931,0,4.135-1.831,4.135-3.061v-2.278Z"/>
      <path class="cls-2" d="M336.6,106.362h2.094v1.989h.051c.995-1.519,2.514-2.304,4.37-2.304,1.649,0,3.168.655,3.718,2.304.916-1.44,2.511-2.304,4.24-2.304,2.695,0,4.501,1.125,4.501,3.925v9.919h-2.225v-8.871c0-1.675-.445-3.01-2.616-3.01-2.148,0-3.534,1.36-3.534,3.455v8.426h-2.225v-8.871c0-1.754-.55-3.01-2.539-3.01-2.642,0-3.611,2.432-3.611,3.455v8.426h-2.225v-13.53Z"/>
      <path class="cls-2" d="M358.992,106.362h2.225v1.831h.051c.734-1.491,2.46-2.146,4.319-2.146,4.161,0,6.229,3.299,6.229,7.119s-2.043,7.04-6.178,7.04c-1.386,0-3.375-.524-4.37-2.12h-.051v6.986h-2.225v-18.711ZM365.272,108.012c-2.984,0-4.135,2.565-4.135,5.102,0,2.67,1.204,5.13,4.265,5.13,3.035,0,4.056-2.59,4.056-5.234,0-2.537-1.307-4.997-4.186-4.997Z"/>
      <path class="cls-2" d="M385.665,119.892h-2.092v-2.146h-.054c-.941,1.675-2.46,2.46-4.396,2.46-3.56,0-4.659-2.041-4.659-4.946v-8.899h2.225v9.16c0,1.649,1.046,2.721,2.749,2.721,2.695,0,4.002-1.805,4.002-4.24v-7.641h2.225v13.53Z"/>
      <path class="cls-2" d="M390.473,115.627c.079,1.989,1.805,2.616,3.639,2.616,1.386,0,3.271-.314,3.271-2.015,0-1.726-2.199-2.015-4.424-2.511-2.197-.499-4.421-1.23-4.421-3.823,0-2.721,2.695-3.846,5.05-3.846,2.984,0,5.365.941,5.549,4.24h-2.225c-.158-1.726-1.675-2.276-3.14-2.276-1.335,0-2.879.366-2.879,1.726,0,1.596,2.355,1.859,4.424,2.355,2.222.499,4.421,1.23,4.421,3.848,0,3.217-3.01,4.265-5.756,4.265-3.038,0-5.603-1.23-5.733-4.58h2.225Z"/>
    </g>
    <g>
      <path class="cls-2" d="M203.484,46.128c.175-.584.27-1.204.27-1.846,0-3.582-2.904-6.486-6.486-6.486s-6.486,2.905-6.486,6.486c0,.642.096,1.261.271,1.846h12.431Z"/>
      <path class="cls-2" d="M357.842,46.128c.175-.584.27-1.204.27-1.846,0-3.582-2.904-6.486-6.486-6.486s-6.486,2.905-6.486,6.486c0,.642.095,1.261.271,1.846h12.431Z"/>
      <path class="cls-2" d="M203.478,50.132v28.076c0,7.7-.77,13.505-12.261,13.505-1.718,0-3.436-.06-5.627-.178v-8.766c4.857,0,5.568-.296,5.568-4.561v-28.076h12.32Z"/>
      <path class="cls-2" d="M230.726,81.169l-.592-3.317c-3.495,3.258-7.049,4.206-11.669,4.206-5.864,0-11.076-2.902-11.076-9.359,0-14.097,22.093-7.7,22.093-13.505,0-2.251-2.725-2.547-4.028-2.547-1.718,0-4.028.355-4.324,3.021h-11.846c0-6.575,4.679-10.424,16.94-10.424,14.69,0,15.578,5.449,15.578,12.853v14.512c0,1.777.059,2.666,1.659,3.969v.592h-12.735ZM229.482,67.427c-4.028,1.955-9.359,1.007-9.359,5.035,0,1.54,1.481,2.607,3.909,2.607,4.324,0,5.745-3.377,5.449-7.641Z"/>
      <path class="cls-2" d="M247.669,50.132h11.254v4.857c2.784-3.731,5.805-5.745,10.484-5.745,8.174,0,12.024,4.798,12.024,13.327v18.599h-12.32v-16.407c0-3.08-.829-5.805-4.324-5.805-3.791,0-4.798,2.429-4.798,6.397v15.815h-12.32v-31.037Z"/>
      <path class="cls-2" d="M297.9,68.434c0,3.672,2.843,6.101,6.101,6.101,1.955,0,3.732-.888,4.62-2.725h11.787c-2.133,7.7-9.951,10.247-17.177,10.247-9.951,0-17.651-5.686-17.651-16.111,0-10.188,7.641-16.704,17.592-16.704,11.491,0,18.421,7.937,18.244,19.191h-23.515ZM309.095,62.156c0-2.844-2.547-5.391-5.449-5.391-3.672,0-5.746,2.073-5.746,5.391h11.195Z"/>
      <path class="cls-2" d="M326.333,81.169v-42.647h12.32v42.647h-12.32Z"/>
      <path class="cls-2" d="M345.466,81.169v-31.037h12.32v31.037h-12.32Z"/>
      <path class="cls-2" d="M385.745,81.169l-.592-3.317c-3.495,3.258-7.049,4.206-11.669,4.206-5.864,0-11.076-2.902-11.076-9.359,0-14.097,22.093-7.7,22.093-13.505,0-2.251-2.725-2.547-4.028-2.547-1.718,0-4.028.355-4.324,3.021h-11.846c0-6.575,4.679-10.424,16.94-10.424,14.69,0,15.578,5.449,15.578,12.853v14.512c0,1.777.06,2.666,1.66,3.969v.592h-12.736ZM384.501,67.427c-4.028,1.955-9.359,1.007-9.359,5.035,0,1.54,1.481,2.607,3.909,2.607,4.324,0,5.745-3.377,5.449-7.641Z"/>
    </g>
  </g>
  <g>
    <path class="cls-1" d="M0,38.208h11.973v15.179h.121c2.056-2.419,4.717-4.173,9.797-4.173,5.624,0,10.764,3.447,10.764,10.643v21.529h-11.974v-16.449c0-3.628-.423-6.168-3.93-6.168-2.056,0-4.778,1.028-4.778,6.047v16.57H0v-43.178Z"/>
    <path class="cls-6" d="M37.895,38.208h11.973v15.179h.121c2.056-2.419,4.717-4.173,9.797-4.173,5.624,0,10.764,3.447,10.764,10.643v21.529h-11.974v-16.449c0-3.628-.423-6.168-3.931-6.168-2.056,0-4.778,1.028-4.778,6.047v16.57h-11.973v-43.178Z"/>
    <path class="cls-5" d="M75.759,50h11.551v4.173h.121c2.419-3.629,5.926-4.959,10.28-4.959,3.387,0,7.015,1.753,8.466,4.898.484-.363,2.902-4.898,10.704-4.898,8.043,0,10.764,5.563,10.764,10.643v21.529h-11.974v-16.993c0-2.964-.302-5.625-3.931-5.625-3.024,0-4.051,2.359-4.051,5.625v16.993h-11.973v-16.993c0-2.964-.303-5.625-3.931-5.625-3.024,0-4.051,2.359-4.051,5.625v16.993h-11.974v-31.385Z"/>
    <rect class="cls-4" x="132.744" y="50" width="11.974" height="31.385"/>
    <path class="cls-4" d="M145.03,46.155c.177-.593.274-1.22.274-1.871,0-3.631-2.943-6.575-6.574-6.575s-6.574,2.944-6.574,6.575c0,.651.097,1.279.274,1.871h12.6Z"/>
  </g>
  <rect class="cls-2" x="166.635" y="34.131" width=".98" height="85.487"/>
</svg>